<svg width="462" height="462" viewBox="0 0 462 462" fill="none" xmlns="http://www.w3.org/2000/svg">
<g clip-path="url(#clip0_583_550)">
<path d="M321.962 0H140.038C62.6974 0 0 62.6974 0 140.038V321.962C0 399.303 62.6974 462 140.038 462H321.962C399.303 462 462 399.303 462 321.962V140.038C462 62.6974 399.303 0 321.962 0Z" fill="#050259"/>
<path d="M381.286 169.795C380.111 160.628 377.056 151.697 372.825 143.47C367.654 133.598 360.603 124.432 351.906 117.145C338.274 105.393 321.35 97.8718 303.252 97.1667C273.637 95.9915 250.603 108.919 233.915 133.128C232.504 135.244 231.564 136.654 230.859 137.124L230.389 137.829L229.919 137.124C229.214 136.889 228.274 135.479 226.863 133.363C211.35 110.329 189.491 98.3419 168.103 97.1667C146.479 96.6966 126.735 103.983 111.222 115.97C102.526 122.786 95.2393 131.013 89.8334 140.415C82.547 152.637 78.5513 166.504 78.3163 180.842C78.0812 200.585 83.0171 218.214 91.2436 234.902C96.1795 244.774 102.056 254.41 108.402 263.577C128.145 291.547 151.885 315.756 177.504 338.321C180.795 340.906 184.085 343.491 187.376 346.077L196.778 352.658C201.009 355.479 205.709 357.594 210.41 358.769C211.35 359.239 212.291 359.944 212.996 360.65C213.466 360.885 213.701 361.355 214.171 361.825C217.697 366.056 217.697 373.107 217.697 387.444C217.932 413.605 221.551 438.613 228.132 462H257.278C248.158 433.724 243.857 402.229 245.197 368.171C245.197 365.35 245.667 363.235 246.372 361.825C246.607 361.355 246.842 360.885 247.312 360.415C249.192 359.944 250.838 359.004 252.718 358.299C256.244 356.654 260.004 354.773 263.295 352.188L282.333 338.791C297.024 326.216 311.009 312.983 323.936 298.81C336.863 284.613 348.733 269.453 359.192 253C364.128 245.479 368.359 237.487 371.885 229.496C380.111 210.927 384.107 191.419 381.286 169.795ZM351.671 212.808C347.675 223.855 341.564 234.432 334.983 244.538C314.534 275.329 288.444 300.714 260.709 324.923C252.483 331.974 244.021 338.321 232.739 338.791C222.397 339.261 213.231 336.44 205.474 330.094C178.444 307.295 153.06 283.085 131.906 254.41C123.68 243.363 116.393 231.611 110.752 219.154C108.402 213.983 106.521 208.812 105.111 203.171C100.41 185.778 102.291 168.855 109.577 154.752C116.158 142.295 126.97 131.953 141.308 125.842C166.692 114.795 193.957 129.603 206.415 147.701L214.171 158.043L212.996 159.688L187.141 192.594C178.915 194.239 172.803 201.526 172.803 210.222C172.803 220.094 180.795 228.085 190.667 228.085C200.538 228.085 208.53 220.094 208.53 210.222V208.812L219.812 193.534L230.154 179.667L240.731 193.064L253.423 209.987C253.423 214.923 255.421 219.389 258.641 222.632C261.885 225.853 266.35 227.85 271.286 227.85C281.158 227.85 289.15 219.859 289.15 209.987C289.15 200.821 282.333 193.299 273.402 192.124L247.077 158.983L246.137 157.808L249.897 152.872C252.365 148.288 255.491 144.128 259.252 140.297C263.013 136.466 267.408 133.011 272.462 129.838C303.017 111.269 332.633 127.487 346.735 148.171C348.615 150.991 350.261 154.047 351.671 157.103C355.667 165.564 357.547 174.496 357.312 184.132C357.077 194.239 354.962 203.876 351.671 212.808Z" fill="white"/>
</g>
<defs>
<clipPath id="clip0_583_550">
<rect width="462" height="462" fill="white"/>
</clipPath>
</defs>
</svg>
